<svg xmlns="http://www.w3.org/2000/svg" xmlns:xlink="http://www.w3.org/1999/xlink" width="500" zoomAndPan="magnify" viewBox="0 0 375 374.999991" height="500" preserveAspectRatio="xMidYMid meet" version="1.0"><defs><g/><clipPath id="f98ec949d8"><path d="M 56.398438 98.589844 L 318.601562 98.589844 L 318.601562 360.796875 L 56.398438 360.796875 Z M 56.398438 98.589844 " clip-rule="nonzero"/></clipPath><clipPath id="438f406c9e"><path d="M 187.5 98.589844 C 115.09375 98.589844 56.398438 157.285156 56.398438 229.691406 C 56.398438 302.097656 115.09375 360.796875 187.5 360.796875 C 259.90625 360.796875 318.601562 302.097656 318.601562 229.691406 C 318.601562 157.285156 259.90625 98.589844 187.5 98.589844 Z M 187.5 98.589844 " clip-rule="nonzero"/></clipPath><clipPath id="51b58644b2"><path d="M 102.972656 166.855469 L 229 166.855469 L 229 288 L 102.972656 288 Z M 102.972656 166.855469 " clip-rule="nonzero"/></clipPath><clipPath id="403be6d286"><path d="M 147 167 L 270.917969 167 L 270.917969 292.816406 L 147 292.816406 Z M 147 167 " clip-rule="nonzero"/></clipPath></defs><g clip-path="url(#f98ec949d8)"><g clip-path="url(#438f406c9e)"><path fill="#f49999" d="M 56.398438 98.589844 L 318.601562 98.589844 L 318.601562 360.796875 L 56.398438 360.796875 Z M 56.398438 98.589844 " fill-opacity="1" fill-rule="nonzero"/></g></g><path fill="#b24242" d="M 165.933594 171.640625 C 133.78125 171.640625 107.71875 180.019531 107.71875 190.351562 L 107.71875 264.296875 C 107.71875 274.632812 133.78125 283.007812 165.933594 283.007812 C 198.085938 283.007812 224.148438 274.632812 224.148438 264.296875 L 224.148438 190.351562 C 224.128906 180.019531 198.066406 171.640625 165.933594 171.640625 Z M 165.933594 171.640625 " fill-opacity="1" fill-rule="nonzero"/><path fill="#fac50b" d="M 176.863281 176.558594 C 146.347656 176.558594 121.625 184.765625 121.625 194.914062 L 121.625 267.425781 C 121.625 277.554688 146.347656 285.78125 176.863281 285.78125 C 207.375 285.78125 232.097656 277.574219 232.097656 267.425781 L 232.097656 194.894531 C 232.097656 184.765625 207.355469 176.558594 176.863281 176.558594 Z M 176.863281 176.558594 " fill-opacity="1" fill-rule="nonzero"/><g clip-path="url(#51b58644b2)"><path fill="#df5f5f" d="M 228.878906 190.332031 C 228.859375 174.9375 197.210938 166.894531 165.933594 166.894531 C 134.714844 166.894531 103.121094 174.917969 102.992188 190.257812 C 102.992188 190.296875 102.972656 190.316406 102.972656 190.351562 L 102.972656 264.296875 C 102.972656 279.695312 134.640625 287.753906 165.933594 287.753906 C 197.210938 287.753906 228.878906 279.714844 228.878906 264.296875 L 228.878906 190.332031 C 228.878906 190.351562 228.878906 190.332031 228.878906 190.332031 Z M 219.402344 239.648438 C 219.402344 241.382812 215.734375 245.125 205.644531 248.363281 C 195.105469 251.75 180.996094 253.613281 165.933594 253.613281 C 150.871094 253.613281 136.761719 251.75 126.222656 248.363281 C 116.132812 245.125 112.464844 241.363281 112.464844 239.648438 C 112.464844 239.632812 112.464844 239.632812 112.464844 239.613281 L 112.464844 227.976562 C 124.175781 234.882812 145.140625 238.457031 165.933594 238.457031 C 186.730469 238.457031 207.691406 234.902344 219.402344 227.976562 Z M 219.402344 215 C 219.402344 216.730469 215.734375 220.472656 205.644531 223.714844 C 195.105469 227.101562 180.996094 228.964844 165.933594 228.964844 C 150.871094 228.964844 136.761719 227.101562 126.222656 223.714844 C 116.132812 220.472656 112.464844 216.714844 112.464844 215 C 112.464844 214.980469 112.464844 214.980469 112.464844 214.964844 L 112.464844 203.328125 C 124.175781 210.234375 145.140625 213.808594 165.933594 213.808594 C 186.730469 213.808594 207.691406 210.253906 219.402344 203.328125 Z M 126.222656 181.621094 C 136.761719 178.234375 150.871094 176.371094 165.933594 176.371094 C 180.996094 176.371094 195.105469 178.234375 205.644531 181.621094 C 215.734375 184.859375 219.402344 188.621094 219.402344 190.332031 C 219.402344 192.066406 215.734375 195.808594 205.644531 199.046875 C 195.105469 202.433594 180.996094 204.296875 165.933594 204.296875 C 150.871094 204.296875 136.761719 202.433594 126.222656 199.046875 C 116.132812 195.808594 112.464844 192.046875 112.464844 190.332031 C 112.449219 188.621094 116.117188 184.878906 126.222656 181.621094 Z M 205.644531 273.011719 C 195.105469 276.398438 180.996094 278.261719 165.933594 278.261719 C 150.855469 278.261719 136.761719 276.398438 126.222656 273.011719 C 116.132812 269.773438 112.464844 266.03125 112.464844 264.296875 L 112.464844 252.625 C 124.175781 259.53125 145.140625 263.105469 165.933594 263.105469 C 186.730469 263.105469 207.691406 259.550781 219.402344 252.625 L 219.402344 264.296875 C 219.402344 266.03125 215.734375 269.773438 205.644531 273.011719 Z M 205.644531 273.011719 " fill-opacity="1" fill-rule="nonzero"/></g><path fill="#b24242" d="M 267.285156 230.082031 C 267.285156 231.96875 267.191406 233.855469 267.007812 235.734375 C 266.820312 237.613281 266.542969 239.480469 266.175781 241.332031 C 265.808594 243.183594 265.347656 245.015625 264.800781 246.824219 C 264.253906 248.628906 263.617188 250.40625 262.894531 252.152344 C 262.171875 253.898438 261.363281 255.601562 260.472656 257.269531 C 259.582031 258.933594 258.613281 260.550781 257.5625 262.125 C 256.515625 263.695312 255.390625 265.210938 254.191406 266.667969 C 252.996094 268.128906 251.726562 269.527344 250.390625 270.863281 C 249.054688 272.199219 247.65625 273.464844 246.199219 274.664062 C 244.738281 275.863281 243.222656 276.984375 241.652344 278.035156 C 240.082031 279.085938 238.464844 280.054688 236.796875 280.945312 C 235.132812 281.835938 233.425781 282.644531 231.679688 283.367188 C 229.933594 284.089844 228.160156 284.722656 226.351562 285.273438 C 224.542969 285.820312 222.714844 286.277344 220.859375 286.648438 C 219.007812 287.015625 217.140625 287.292969 215.261719 287.476562 C 213.382812 287.664062 211.5 287.753906 209.609375 287.753906 C 207.71875 287.753906 205.835938 287.664062 203.957031 287.476562 C 202.078125 287.292969 200.210938 287.015625 198.355469 286.648438 C 196.503906 286.277344 194.675781 285.820312 192.867188 285.273438 C 191.058594 284.722656 189.28125 284.089844 187.539062 283.367188 C 185.792969 282.644531 184.085938 281.835938 182.421875 280.945312 C 180.753906 280.054688 179.136719 279.085938 177.566406 278.035156 C 175.996094 276.984375 174.480469 275.863281 173.019531 274.664062 C 171.558594 273.464844 170.164062 272.199219 168.828125 270.863281 C 167.492188 269.527344 166.222656 268.128906 165.027344 266.667969 C 163.828125 265.210938 162.703125 263.695312 161.652344 262.125 C 160.605469 260.550781 159.636719 258.933594 158.746094 257.269531 C 157.855469 255.601562 157.046875 253.898438 156.324219 252.152344 C 155.601562 250.40625 154.964844 248.628906 154.417969 246.824219 C 153.871094 245.015625 153.410156 243.183594 153.042969 241.332031 C 152.675781 239.480469 152.398438 237.613281 152.210938 235.734375 C 152.027344 233.855469 151.933594 231.96875 151.933594 230.082031 C 151.933594 228.191406 152.027344 226.308594 152.210938 224.425781 C 152.398438 222.546875 152.675781 220.679688 153.042969 218.828125 C 153.410156 216.976562 153.871094 215.144531 154.417969 213.339844 C 154.964844 211.53125 155.601562 209.753906 156.324219 208.007812 C 157.046875 206.265625 157.855469 204.558594 158.746094 202.894531 C 159.636719 201.226562 160.605469 199.609375 161.652344 198.039062 C 162.703125 196.46875 163.828125 194.953125 165.027344 193.492188 C 166.222656 192.03125 167.492188 190.632812 168.828125 189.296875 C 170.164062 187.960938 171.558594 186.695312 173.019531 185.496094 C 174.480469 184.300781 175.996094 183.175781 177.566406 182.125 C 179.136719 181.074219 180.753906 180.105469 182.421875 179.214844 C 184.085938 178.324219 185.792969 177.519531 187.539062 176.796875 C 189.28125 176.074219 191.058594 175.4375 192.867188 174.890625 C 194.675781 174.339844 196.503906 173.882812 198.355469 173.515625 C 200.210938 173.144531 202.078125 172.867188 203.957031 172.683594 C 205.835938 172.5 207.71875 172.40625 209.609375 172.40625 C 211.5 172.40625 213.382812 172.5 215.261719 172.683594 C 217.140625 172.867188 219.007812 173.144531 220.859375 173.515625 C 222.714844 173.882812 224.542969 174.339844 226.351562 174.890625 C 228.160156 175.4375 229.933594 176.074219 231.679688 176.796875 C 233.425781 177.519531 235.132812 178.324219 236.796875 179.214844 C 238.464844 180.105469 240.082031 181.074219 241.652344 182.125 C 243.222656 183.175781 244.738281 184.300781 246.199219 185.496094 C 247.65625 186.695312 249.054688 187.960938 250.390625 189.296875 C 251.726562 190.632812 252.996094 192.03125 254.191406 193.492188 C 255.390625 194.953125 256.515625 196.46875 257.5625 198.039062 C 258.613281 199.609375 259.582031 201.226562 260.472656 202.894531 C 261.363281 204.558594 262.171875 206.265625 262.894531 208.007812 C 263.617188 209.753906 264.253906 211.53125 264.800781 213.339844 C 265.347656 215.144531 265.808594 216.976562 266.175781 218.828125 C 266.542969 220.679688 266.820312 222.546875 267.007812 224.425781 C 267.191406 226.308594 267.285156 228.191406 267.285156 230.082031 Z M 267.285156 230.082031 " fill-opacity="1" fill-rule="nonzero"/><path fill="#fac50b" d="M 261.828125 232.128906 C 261.828125 233.792969 261.746094 235.457031 261.585938 237.117188 C 261.421875 238.773438 261.175781 240.421875 260.851562 242.054688 C 260.527344 243.6875 260.121094 245.304688 259.640625 246.898438 C 259.15625 248.492188 258.59375 250.058594 257.957031 251.597656 C 257.320312 253.140625 256.605469 254.644531 255.820312 256.113281 C 255.035156 257.582031 254.179688 259.011719 253.253906 260.394531 C 252.328125 261.78125 251.335938 263.117188 250.28125 264.40625 C 249.222656 265.695312 248.105469 266.929688 246.925781 268.105469 C 245.75 269.285156 244.515625 270.402344 243.226562 271.460938 C 241.9375 272.515625 240.601562 273.507812 239.21875 274.433594 C 237.832031 275.359375 236.402344 276.214844 234.933594 277 C 233.464844 277.785156 231.960938 278.496094 230.421875 279.136719 C 228.882812 279.773438 227.3125 280.332031 225.71875 280.816406 C 224.125 281.300781 222.511719 281.707031 220.875 282.03125 C 219.242188 282.355469 217.59375 282.601562 215.9375 282.761719 C 214.277344 282.925781 212.617188 283.007812 210.949219 283.007812 C 209.285156 283.007812 207.621094 282.925781 205.960938 282.761719 C 204.304688 282.601562 202.65625 282.355469 201.023438 282.03125 C 199.390625 281.707031 197.773438 281.300781 196.179688 280.816406 C 194.585938 280.332031 193.019531 279.773438 191.480469 279.136719 C 189.9375 278.496094 188.433594 277.785156 186.964844 277 C 185.496094 276.214844 184.066406 275.359375 182.683594 274.433594 C 181.296875 273.507812 179.960938 272.515625 178.671875 271.460938 C 177.382812 270.402344 176.152344 269.285156 174.972656 268.105469 C 173.792969 266.925781 172.675781 265.695312 171.617188 264.40625 C 170.5625 263.117188 169.570312 261.78125 168.644531 260.394531 C 167.71875 259.011719 166.863281 257.582031 166.078125 256.113281 C 165.292969 254.644531 164.582031 253.140625 163.941406 251.597656 C 163.304688 250.058594 162.746094 248.492188 162.261719 246.898438 C 161.777344 245.304688 161.371094 243.6875 161.046875 242.054688 C 160.722656 240.421875 160.476562 238.773438 160.316406 237.117188 C 160.152344 235.457031 160.070312 233.792969 160.070312 232.128906 C 160.070312 230.460938 160.152344 228.800781 160.316406 227.140625 C 160.476562 225.484375 160.722656 223.835938 161.046875 222.203125 C 161.371094 220.566406 161.777344 218.953125 162.261719 217.359375 C 162.746094 215.765625 163.304688 214.195312 163.941406 212.65625 C 164.582031 211.117188 165.292969 209.613281 166.078125 208.144531 C 166.863281 206.675781 167.71875 205.246094 168.644531 203.859375 C 169.570312 202.476562 170.5625 201.140625 171.617188 199.851562 C 172.675781 198.5625 173.792969 197.328125 174.972656 196.152344 C 176.152344 194.972656 177.382812 193.855469 178.671875 192.796875 C 179.960938 191.742188 181.296875 190.75 182.683594 189.824219 C 184.066406 188.898438 185.496094 188.042969 186.964844 187.257812 C 188.433594 186.472656 189.9375 185.757812 191.480469 185.121094 C 193.019531 184.484375 194.585938 183.921875 196.179688 183.4375 C 197.773438 182.957031 199.390625 182.550781 201.023438 182.226562 C 202.65625 181.902344 204.304688 181.65625 205.960938 181.492188 C 207.621094 181.332031 209.285156 181.25 210.949219 181.25 C 212.617188 181.25 214.277344 181.332031 215.9375 181.492188 C 217.59375 181.65625 219.242188 181.902344 220.875 182.226562 C 222.511719 182.550781 224.125 182.957031 225.71875 183.4375 C 227.3125 183.921875 228.882812 184.484375 230.421875 185.121094 C 231.960938 185.757812 233.464844 186.472656 234.933594 187.257812 C 236.402344 188.042969 237.832031 188.898438 239.21875 189.824219 C 240.601562 190.75 241.9375 191.742188 243.226562 192.796875 C 244.515625 193.855469 245.75 194.972656 246.925781 196.152344 C 248.105469 197.328125 249.222656 198.5625 250.28125 199.851562 C 251.335938 201.140625 252.328125 202.476562 253.253906 203.859375 C 254.179688 205.246094 255.035156 206.675781 255.820312 208.144531 C 256.605469 209.613281 257.320312 211.117188 257.957031 212.65625 C 258.59375 214.195312 259.15625 215.765625 259.640625 217.359375 C 260.121094 218.953125 260.527344 220.566406 260.851562 222.203125 C 261.175781 223.835938 261.421875 225.484375 261.585938 227.140625 C 261.746094 228.800781 261.828125 230.460938 261.828125 232.128906 Z M 261.828125 232.128906 " fill-opacity="1" fill-rule="nonzero"/><path fill="#ffffff" d="M 259.445312 227.324219 C 260.097656 233.988281 259.113281 240.878906 256.710938 247.265625 C 256.09375 248.847656 255.371094 250.390625 254.664062 251.957031 C 253.863281 253.464844 252.96875 254.933594 252.113281 256.421875 C 251.164062 257.839844 250.101562 259.199219 249.09375 260.59375 L 245.671875 264.429688 L 241.816406 267.855469 C 240.421875 268.859375 239.078125 269.921875 237.664062 270.871094 C 236.175781 271.726562 234.703125 272.621094 233.195312 273.421875 C 231.632812 274.128906 230.085938 274.855469 228.503906 275.46875 C 222.121094 277.871094 215.230469 278.855469 208.566406 278.207031 C 215.230469 277.535156 221.65625 275.898438 227.554688 273.179688 C 229.027344 272.472656 230.441406 271.671875 231.894531 270.964844 C 233.289062 270.144531 234.628906 269.230469 235.988281 268.375 L 239.84375 265.453125 L 243.398438 262.175781 L 246.675781 258.621094 L 249.597656 254.765625 C 250.453125 253.40625 251.367188 252.046875 252.1875 250.671875 C 252.894531 249.21875 253.695312 247.804688 254.402344 246.332031 C 257.136719 240.394531 258.777344 233.972656 259.445312 227.324219 Z M 259.445312 227.324219 " fill-opacity="1" fill-rule="nonzero"/><g clip-path="url(#403be6d286)"><path fill="#df5f5f" d="M 209.609375 292.484375 C 175.1875 292.484375 147.207031 264.484375 147.207031 230.082031 C 147.207031 195.65625 175.207031 167.675781 209.609375 167.675781 C 244.011719 167.675781 272.011719 195.65625 272.011719 230.082031 C 272.011719 264.484375 244.011719 292.484375 209.609375 292.484375 Z M 209.609375 177.132812 C 180.417969 177.132812 156.679688 200.871094 156.679688 230.0625 C 156.679688 259.253906 180.417969 283.007812 209.609375 283.007812 C 238.800781 283.007812 262.535156 259.273438 262.535156 230.082031 C 262.535156 200.890625 238.78125 177.132812 209.609375 177.132812 Z M 209.609375 177.132812 " fill-opacity="1" fill-rule="nonzero"/></g><path fill="#df5f5f" d="M 229.921875 252.105469 C 226.699219 255.417969 222.121094 257.613281 216.179688 258.675781 L 216.179688 267.519531 L 204.953125 267.519531 L 204.953125 259.066406 C 200.972656 258.863281 197.15625 258.246094 193.523438 257.242188 C 189.894531 256.238281 186.878906 254.988281 184.476562 253.5 L 190.527344 239.796875 C 193.1875 241.34375 196.148438 242.574219 199.445312 243.503906 C 202.738281 244.433594 205.90625 244.898438 208.921875 244.898438 C 211.527344 244.898438 213.386719 244.640625 214.503906 244.136719 C 215.621094 243.632812 216.179688 242.871094 216.179688 241.863281 C 216.179688 240.691406 215.453125 239.816406 213.984375 239.238281 C 212.53125 238.664062 210.113281 238.011719 206.78125 237.324219 C 202.480469 236.429688 198.886719 235.441406 196.019531 234.417969 C 193.152344 233.375 190.65625 231.683594 188.535156 229.316406 C 186.414062 226.953125 185.351562 223.75 185.351562 219.710938 C 185.351562 215.039062 187.046875 211.015625 190.414062 207.683594 C 193.785156 204.332031 198.644531 202.210938 204.953125 201.316406 L 204.953125 192.625 L 216.179688 192.625 L 216.179688 201.148438 C 222.546875 201.726562 227.945312 203.273438 232.359375 205.765625 L 226.699219 219.394531 C 221.226562 216.640625 216.050781 215.242188 211.15625 215.242188 C 206.3125 215.242188 203.914062 216.414062 203.914062 218.742188 C 203.914062 219.859375 204.621094 220.699219 206.070312 221.257812 C 207.503906 221.816406 209.871094 222.410156 213.164062 223.042969 C 217.410156 223.84375 221.003906 224.757812 223.925781 225.796875 C 226.847656 226.839844 229.378906 228.515625 231.539062 230.863281 C 233.699219 233.207031 234.761719 236.390625 234.761719 240.433594 C 234.742188 244.898438 233.140625 248.789062 229.921875 252.105469 Z M 229.921875 252.105469 " fill-opacity="1" fill-rule="nonzero"/><g fill="#ffffff" fill-opacity="1"><g transform="translate(90.434973, 119.357424)"><g><path d="M 26.660156 -50.855469 C 24.453125 -54.265625 21.726562 -56.949219 18.578125 -59.0625 C 15.433594 -61.175781 12.070312 -62.554688 8.558594 -63.246094 C 4.980469 -63.894531 1.367188 -63.828125 -2.324219 -63.117188 C -6.085938 -62.363281 -9.695312 -60.914062 -13.035156 -58.753906 L -25.429688 -50.726562 L 5.222656 -3.378906 L 17.617188 -11.40625 C 20.957031 -13.566406 23.800781 -16.199219 26.027344 -19.320312 C 28.1875 -22.398438 29.679688 -25.738281 30.558594 -29.269531 C 31.363281 -32.753906 31.527344 -36.316406 30.886719 -40.054688 C 30.246094 -43.789062 28.914062 -47.375 26.660156 -50.855469 Z M 21.925781 -47.789062 C 25.441406 -42.359375 26.421875 -36.570312 24.960938 -30.585938 C 23.5 -24.601562 20.03125 -19.882812 14.601562 -16.367188 L 6.941406 -11.410156 L -17.402344 -49.011719 L -9.742188 -53.96875 C -4.3125 -57.484375 1.457031 -58.648438 7.472656 -57.601562 C 13.574219 -56.414062 18.453125 -53.152344 21.925781 -47.789062 Z M 21.925781 -47.789062 "/></g></g></g><g fill="#ffffff" fill-opacity="1"><g transform="translate(131.272878, 94.452671)"><g><path d="M 11.269531 -4.203125 L -8.441406 -57.050781 L -13.878906 -55.023438 L 5.828125 -2.171875 Z M 11.269531 -4.203125 "/></g></g></g><g fill="#ffffff" fill-opacity="1"><g transform="translate(142.674295, 87.871049)"><g><path d="M 5.644531 -42.890625 L 43.738281 -3.128906 L 34.738281 -62.335938 L 28.996094 -61.460938 L 35.230469 -20.460938 L -2.863281 -60.222656 L 6.148438 -0.933594 L 11.890625 -1.808594 Z M 5.644531 -42.890625 "/></g></g></g><g fill="#ffffff" fill-opacity="1"><g transform="translate(183.991131, 80.017963)"><g><path d="M 53.917969 -19.742188 C 54.578125 -23.753906 54.363281 -27.570312 53.453125 -31.25 C 52.542969 -34.929688 50.976562 -38.210938 48.84375 -41.082031 C 46.625 -43.96875 43.90625 -46.347656 40.695312 -48.300781 C 37.40625 -50.269531 33.761719 -51.625 29.832031 -52.265625 L 15.261719 -54.65625 L 6.140625 1.007812 L 20.710938 3.394531 C 24.636719 4.039062 28.511719 4 32.257812 3.183594 C 35.925781 2.355469 39.273438 0.890625 42.296875 -1.136719 C 45.238281 -3.175781 47.753906 -5.707031 49.789062 -8.902344 C 51.828125 -12.101562 53.25 -15.648438 53.917969 -19.742188 Z M 48.351562 -20.652344 C 47.308594 -14.269531 44.144531 -9.324219 39.039062 -5.875 C 33.933594 -2.425781 28.195312 -1.261719 21.8125 -2.308594 L 12.808594 -3.785156 L 20.050781 -47.984375 L 29.054688 -46.511719 C 35.441406 -45.464844 40.492188 -42.449219 44.242188 -37.632812 C 47.964844 -32.652344 49.386719 -26.957031 48.351562 -20.652344 Z M 48.351562 -20.652344 "/></g></g></g><g fill="#ffffff" fill-opacity="1"><g transform="translate(230.967938, 89.023912)"><g><path d="M 11.167969 4.460938 L 32.089844 -47.917969 L 26.699219 -50.070312 L 5.777344 2.308594 Z M 11.167969 4.460938 "/></g></g></g><g fill="#ffffff" fill-opacity="1"><g transform="translate(243.83511, 91.809509)"><g><path d="M 33.003906 -27.96875 L 34.492188 27.078125 L 67.613281 -22.8125 L 62.777344 -26.023438 L 39.839844 8.527344 L 38.351562 -46.523438 L 5.183594 3.441406 L 10.019531 6.652344 Z M 33.003906 -27.96875 "/></g></g></g></svg>